<?xml version="1.0" encoding="UTF-8" standalone="no"?><!-- Generator: Gravit.io --><svg xmlns="http://www.w3.org/2000/svg" xmlns:xlink="http://www.w3.org/1999/xlink" style="isolation:isolate" viewBox="327 1371 160 141" width="160pt" height="141pt"><g><path d=" M 464.143 1386.667 L 464.143 1371 L 452.714 1371 L 452.714 1386.667 L 429.857 1386.667 L 429.857 1371 L 418.429 1371 L 418.429 1386.667 L 395.571 1386.667 L 395.571 1371 L 384.143 1371 L 384.143 1386.667 L 361.286 1386.667 L 361.286 1371 L 349.857 1371 L 349.857 1386.667 L 327 1386.667 L 327 1512 L 487 1512 L 487 1386.667 L 464.143 1386.667 Z  M 349.857 1397.111 L 349.857 1407.556 L 361.286 1407.556 L 361.286 1397.111 L 384.143 1397.111 L 384.143 1407.556 L 395.571 1407.556 L 395.571 1397.111 L 418.429 1397.111 L 418.429 1407.556 L 429.857 1407.556 L 429.857 1397.111 L 452.714 1397.111 L 452.714 1407.556 L 464.143 1407.556 L 464.143 1397.111 L 475.571 1397.111 L 475.571 1418 L 338.429 1418 L 338.429 1397.111 L 349.857 1397.111 Z  M 338.429 1501.556 L 338.429 1428.444 L 475.571 1428.444 L 475.571 1501.556 L 338.429 1501.556 Z " fill="rgb(255,255,255)"/><rect x="384.143" y="1449.333" width="11.429" height="10.444" transform="matrix(1,0,0,1,0,0)" fill="rgb(255,255,255)"/><rect x="407" y="1449.333" width="11.429" height="10.444" transform="matrix(1,0,0,1,0,0)" fill="rgb(255,255,255)"/><rect x="429.857" y="1449.333" width="11.429" height="10.444" transform="matrix(1,0,0,1,0,0)" fill="rgb(255,255,255)"/><rect x="361.286" y="1470.222" width="11.429" height="10.444" transform="matrix(1,0,0,1,0,0)" fill="rgb(255,255,255)"/><rect x="384.143" y="1470.222" width="11.429" height="10.444" transform="matrix(1,0,0,1,0,0)" fill="rgb(255,255,255)"/><rect x="407" y="1470.222" width="11.429" height="10.444" transform="matrix(1,0,0,1,0,0)" fill="rgb(255,255,255)"/></g></svg>