<?xml version="1.0" encoding="UTF-8" standalone="no"?><!-- Generator: Gravit.io --><svg xmlns="http://www.w3.org/2000/svg" xmlns:xlink="http://www.w3.org/1999/xlink" style="isolation:isolate" viewBox="1433 1371 160 141" width="160pt" height="141pt"><g><path d=" M 1513 1371 C 1468.817 1371 1433 1402.564 1433 1441.5 C 1433 1480.436 1468.817 1512 1513 1512 C 1557.183 1512 1593 1480.436 1593 1441.5 C 1593 1402.564 1557.183 1371 1513 1371 Z  M 1513 1504.151 C 1473.736 1504.151 1441.907 1476.101 1441.907 1441.5 C 1441.907 1406.899 1473.736 1378.849 1513 1378.849 C 1552.264 1378.849 1584.093 1406.899 1584.093 1441.5 C 1584.035 1476.08 1552.239 1504.099 1513 1504.151 L 1513 1504.151 Z " fill="rgb(255,255,255)"/><path d=" M 1501.853 1453.673 L 1484.787 1438.633 L 1477.213 1445.26 L 1501.853 1466.927 L 1553.587 1421.337 L 1546.067 1414.663 L 1501.853 1453.673 L 1501.853 1453.673 Z " fill="rgb(255,255,255)"/></g></svg>