<?xml version="1.0" encoding="UTF-8" standalone="no"?><!-- Generator: Gravit.io --><svg xmlns="http://www.w3.org/2000/svg" xmlns:xlink="http://www.w3.org/1999/xlink" style="isolation:isolate" viewBox="870 1371 160 141" width="160pt" height="141pt"><g><rect x="898.571" y="1413.3" width="114.286" height="14.1" transform="matrix(1,0,0,1,0,0)" fill="rgb(255,255,255)"/><rect x="870" y="1413.3" width="11.429" height="14.1" transform="matrix(1,0,0,1,0,0)" fill="rgb(255,255,255)"/><rect x="898.571" y="1455.6" width="131.429" height="14.1" transform="matrix(1,0,0,1,0,0)" fill="rgb(255,255,255)"/><rect x="870" y="1455.6" width="11.429" height="14.1" transform="matrix(1,0,0,1,0,0)" fill="rgb(255,255,255)"/><rect x="898.571" y="1371" width="131.429" height="14.1" transform="matrix(1,0,0,1,0,0)" fill="rgb(255,255,255)"/><rect x="870" y="1371" width="11.429" height="14.1" transform="matrix(1,0,0,1,0,0)" fill="rgb(255,255,255)"/><rect x="898.571" y="1497.9" width="102.857" height="14.1" transform="matrix(1,0,0,1,0,0)" fill="rgb(255,255,255)"/><rect x="870" y="1497.9" width="11.429" height="14.1" transform="matrix(1,0,0,1,0,0)" fill="rgb(255,255,255)"/></g></svg>