<?xml version="1.0" encoding="UTF-8" standalone="no"?><!-- Generator: Gravit.io --><svg xmlns="http://www.w3.org/2000/svg" xmlns:xlink="http://www.w3.org/1999/xlink" style="isolation:isolate" viewBox="296.915 13.427 35.085 47.335" width="35.085pt" height="47.335pt"><g><path d="M 323.72 14.85 L 323.811 14.919 C 326.656 17.11 327.01 21.051 324.601 23.714 L 308.914 41.052 C 306.505 43.715 302.239 44.098 299.394 41.907 L 299.303 41.837 C 296.458 39.646 296.104 35.705 298.514 33.042 L 314.2 15.704 C 316.609 13.042 320.875 12.659 323.72 14.85 Z" style="stroke:none;fill:#3185FC;stroke-miterlimit:10;"/><path d="M 329.521 32.283 L 329.612 32.353 C 332.457 34.544 332.81 38.485 330.401 41.148 L 314.715 58.485 C 312.305 61.148 308.04 61.531 305.194 59.34 L 305.104 59.27 C 302.259 57.079 301.905 53.139 304.314 50.476 L 320.001 33.138 C 322.41 30.475 326.676 30.092 329.521 32.283 Z" style="stroke:none;fill:#34E5FF;stroke-miterlimit:10;"/></g></svg>