<?xml version="1.0" encoding="UTF-8" standalone="no"?><!-- Generator: Gravit.io --><svg xmlns="http://www.w3.org/2000/svg" xmlns:xlink="http://www.w3.org/1999/xlink" style="isolation:isolate" viewBox="676.747 204.559 566.506 365.441" width="566.506pt" height="365.441pt"><g><linearGradient id="_lgradient_0" x1="0" y1="0.5" x2="1.0176991150442478" y2="0.5" gradientTransform="matrix(299,0,0,183,944.253,387)" gradientUnits="userSpaceOnUse"><stop offset="0%" stop-opacity="0.74" style="stop-color:rgb(0,0,0)"/><stop offset="98.26086956521739%" stop-opacity="0" style="stop-color:rgb(255,255,255)"/></linearGradient><path d=" M 944.253 387 L 1243.253 394 C 1240.125 472.225 1240.155 538.255 1243.253 570 L 1243.253 570 L 1243.253 570 L 944.253 570 L 944.253 387 Z " fill="url(#_lgradient_0)"/><g><g><path d="M 793.284 294.246 L 813.565 307.078 C 815.314 308.184 815.836 310.503 814.73 312.252 L 814.73 312.252 C 813.623 314.001 811.305 314.522 809.556 313.416 L 789.274 300.584 C 787.525 299.478 787.003 297.159 788.11 295.41 L 788.11 295.41 C 789.216 293.661 791.534 293.14 793.284 294.246 Z" style="stroke:none;fill:#464646;stroke-miterlimit:10;"/><path d="M 758.284 273.715 L 778.565 286.546 C 780.314 287.652 780.836 289.971 779.73 291.72 L 779.73 291.72 C 778.623 293.469 776.305 293.991 774.556 292.884 L 754.274 280.053 C 752.525 278.946 752.003 276.628 753.11 274.879 L 753.11 274.879 C 754.216 273.13 756.534 272.608 758.284 273.715 Z" style="stroke:none;fill:#464646;stroke-miterlimit:10;"/><path d="M 720.284 253.383 L 740.565 266.215 C 742.314 267.321 742.836 269.64 741.73 271.389 L 741.73 271.389 C 740.623 273.138 738.305 273.659 736.556 272.553 L 716.274 259.721 C 714.525 258.615 714.003 256.297 715.11 254.548 L 715.11 254.548 C 716.216 252.798 718.534 252.277 720.284 253.383 Z" style="stroke:none;fill:#464646;stroke-miterlimit:10;"/><path d="M 682.502 233.052 L 702.784 245.884 C 704.533 246.99 705.054 249.309 703.948 251.058 L 703.948 251.058 C 702.841 252.807 700.523 253.328 698.774 252.222 L 678.492 239.39 C 676.743 238.284 676.221 235.965 677.328 234.216 L 677.328 234.216 C 678.434 232.467 680.753 231.946 682.502 233.052 Z" style="stroke:none;fill:#464646;stroke-miterlimit:10;"/></g><g><g><g><path d=" M 755.186 364.407 L 803.669 394.486 L 802.972 456 L 754.227 425.751 L 755.186 364.407 Z " fill="rgb(72,165,223)"/><path d=" M 852.937 363.813 L 852.24 425.328 L 802.885 455.831 L 803.582 394.486 L 852.937 363.813 Z " fill="rgb(43,82,130)"/><path d="M 804.531 333.5 L 853.227 363.927 L 803.718 394.862 L 755.022 364.435 L 804.531 333.5 Z" style="stroke:none;fill:#61E4F0;stroke-miterlimit:10;"/></g></g><g><path d=" M 758.345 373.331 L 762.249 376.244 L 762.193 382.2 L 758.267 379.271 L 758.345 373.331 Z " fill="rgb(178,217,242)"/><path d=" M 814.475 391.416 L 809.686 394.328 L 809.755 400.284 L 814.569 397.355 L 814.475 391.416 Z " fill="rgb(178,217,242)"/><path d=" M 758.345 415.358 L 762.249 418.27 L 762.193 424.226 L 758.267 421.297 L 758.345 415.358 Z " fill="rgb(178,217,242)"/><path d=" M 758.345 404.851 L 762.249 407.764 L 762.193 413.72 L 758.267 410.791 L 758.345 404.851 Z " fill="rgb(178,217,242)"/><path d=" M 758.345 394.345 L 762.249 397.257 L 762.193 403.213 L 758.267 400.284 L 758.345 394.345 Z " fill="rgb(178,217,242)"/><path d=" M 758.345 383.838 L 762.249 386.75 L 762.193 392.706 L 758.267 389.778 L 758.345 383.838 Z " fill="rgb(178,217,242)"/></g><g><path d=" M 766.961 379.234 L 766.799 384.994 L 798.372 403.801 L 798.525 398.381 L 766.961 379.234 Z " fill="rgb(43,82,130)"/><path d=" M 849.287 370.591 L 849.449 376.35 L 817.877 395.158 L 817.724 389.737 L 849.287 370.591 Z " fill="rgb(97,166,240)"/><path d=" M 766.39 399.562 L 766.228 405.322 L 797.801 424.129 L 797.953 418.708 L 766.39 399.562 Z " fill="rgb(43,82,130)"/><path d=" M 766.676 389.398 L 766.514 395.158 L 798.087 413.965 L 798.239 408.544 L 766.676 389.398 Z " fill="rgb(43,82,130)"/><path d=" M 766.676 389.398 L 766.514 395.158 L 798.087 413.965 L 798.239 408.544 L 766.676 389.398 Z " fill="rgb(43,82,130)"/><path d=" M 766.104 409.726 L 765.942 415.485 L 797.515 434.293 L 797.667 428.872 L 766.104 409.726 Z " fill="rgb(43,82,130)"/><path d=" M 765.809 420.229 L 765.647 425.988 L 797.22 444.796 L 797.372 439.375 L 765.809 420.229 Z " fill="rgb(43,82,130)"/></g><path d=" M 820.153 407.045 C 824.194 399.934 831.498 396.319 836.453 398.978 C 841.409 401.636 842.151 409.568 838.11 416.679 C 834.069 423.791 826.766 427.406 821.81 424.747 C 816.855 422.089 816.112 414.157 820.153 407.045 Z " fill="rgb(25,25,25)"/></g><g><g><g><path d=" M 806.477 295.75 L 945.477 384.5 L 943.477 566 L 803.727 476.75 L 806.477 295.75 Z " fill="rgb(72,165,223)"/><path d=" M 1086.727 294 L 1084.727 475.5 L 943.227 565.5 L 945.227 384.5 L 1086.727 294 Z " fill="rgb(43,82,130)"/><path d="M 947.947 204.559 L 1087.557 294.336 L 945.616 385.611 L 806.006 295.834 L 947.947 204.559 L 947.947 204.559 L 947.947 204.559 Z" style="stroke:none;fill:#61E4F0;stroke-miterlimit:10;"/></g></g><g><path d=" M 815.532 322.083 L 826.727 330.676 L 826.566 348.25 L 815.31 339.608 L 815.532 322.083 Z " fill="rgb(178,217,242)"/><path d=" M 976.455 375.442 L 962.727 384.035 L 962.925 401.608 L 976.727 392.967 L 976.455 375.442 Z " fill="rgb(178,217,242)"/><path d=" M 815.532 446.083 L 826.727 454.676 L 826.566 472.25 L 815.31 463.608 L 815.532 446.083 Z " fill="rgb(178,217,242)"/><path d=" M 815.532 415.083 L 826.727 423.676 L 826.566 441.25 L 815.31 432.608 L 815.532 415.083 Z " fill="rgb(178,217,242)"/><path d=" M 815.532 384.083 L 826.727 392.676 L 826.566 410.25 L 815.31 401.608 L 815.532 384.083 Z " fill="rgb(178,217,242)"/><path d=" M 815.532 353.083 L 826.727 361.676 L 826.566 379.25 L 815.31 370.608 L 815.532 353.083 Z " fill="rgb(178,217,242)"/></g><g><path d=" M 840.236 339.5 L 839.772 356.494 L 930.29 411.986 L 930.727 395.992 L 840.236 339.5 Z " fill="rgb(43,82,130)"/><path d=" M 1076.263 313.997 L 1076.727 330.99 L 986.208 386.482 L 985.772 370.488 L 1076.263 313.997 Z " fill="rgb(97,166,240)"/><path d=" M 838.598 399.478 L 838.133 416.471 L 928.652 471.963 L 929.089 455.969 L 838.598 399.478 Z " fill="rgb(43,82,130)"/><path d=" M 839.417 369.489 L 838.952 386.482 L 929.471 441.975 L 929.908 425.981 L 839.417 369.489 Z " fill="rgb(43,82,130)"/><path d=" M 839.417 369.489 L 838.952 386.482 L 929.471 441.975 L 929.908 425.981 L 839.417 369.489 Z " fill="rgb(43,82,130)"/><path d=" M 837.778 429.466 L 837.314 446.46 L 927.833 501.952 L 928.27 485.958 L 837.778 429.466 Z " fill="rgb(43,82,130)"/><path d=" M 836.932 460.455 L 836.468 477.449 L 926.986 532.941 L 927.423 516.947 L 836.932 460.455 Z " fill="rgb(43,82,130)"/></g><path d=" M 992.736 421.558 C 1004.321 400.576 1025.261 389.91 1039.468 397.754 C 1053.675 405.598 1055.803 429.001 1044.218 449.983 C 1032.633 470.965 1011.693 481.631 997.486 473.787 C 983.279 465.943 981.151 442.54 992.736 421.558 Z " fill="rgb(25,25,25)"/></g><g><path d="M 1169.732 513.19 L 1190.014 526.022 C 1191.763 527.128 1192.284 529.447 1191.178 531.196 L 1191.178 531.196 C 1190.071 532.945 1187.753 533.466 1186.004 532.36 L 1165.722 519.529 C 1163.973 518.422 1163.451 516.104 1164.558 514.355 L 1164.558 514.355 C 1165.664 512.606 1167.983 512.084 1169.732 513.19 Z" style="stroke:none;fill:#48A5DF;stroke-miterlimit:10;"/><path d="M 1134.732 492.659 L 1155.014 505.49 C 1156.763 506.597 1157.284 508.915 1156.178 510.664 L 1156.178 510.664 C 1155.071 512.413 1152.753 512.935 1151.004 511.828 L 1130.722 498.997 C 1128.973 497.89 1128.451 495.572 1129.558 493.823 L 1129.558 493.823 C 1130.664 492.074 1132.983 491.552 1134.732 492.659 Z" style="stroke:none;fill:#48A5DF;stroke-miterlimit:10;"/><path d="M 1096.732 472.328 L 1117.014 485.159 C 1118.763 486.265 1119.284 488.584 1118.178 490.333 L 1118.178 490.333 C 1117.071 492.082 1114.753 492.604 1113.004 491.497 L 1092.722 478.666 C 1090.973 477.559 1090.451 475.241 1091.558 473.492 L 1091.558 473.492 C 1092.664 471.743 1094.983 471.221 1096.732 472.328 Z" style="stroke:none;fill:#48A5DF;stroke-miterlimit:10;"/><path d="M 1058.95 451.996 L 1079.232 464.828 C 1080.981 465.934 1081.503 468.253 1080.396 470.002 L 1080.396 470.002 C 1079.29 471.751 1076.971 472.272 1075.222 471.166 L 1054.94 458.334 C 1053.191 457.228 1052.67 454.91 1053.776 453.161 L 1053.776 453.161 C 1054.883 451.411 1057.201 450.89 1058.95 451.996 Z" style="stroke:none;fill:#48A5DF;stroke-miterlimit:10;"/><path d="M 1020.732 431.665 L 1041.014 444.497 C 1042.763 445.603 1043.284 447.922 1042.178 449.671 L 1042.178 449.671 C 1041.071 451.42 1038.753 451.941 1037.004 450.835 L 1016.722 438.003 C 1014.973 436.897 1014.451 434.578 1015.558 432.829 L 1015.558 432.829 C 1016.664 431.08 1018.983 430.559 1020.732 431.665 Z" style="stroke:none;fill:#48A5DF;stroke-miterlimit:10;"/></g></g></g></svg>